# AST/ASF file generated using VICON BodyLanguage
# -----------------------------------------------
:version 1.10
:name VICON
:units
  mass 1.0
  length 0.45
  angle deg
:documentation
   .ast/.asf automatically generated from VICON data using
   VICON BodyBuilder and BodyLanguage model FoxedUp or BRILLIANT.MOD
:root
   order TX TY TZ RX RY RZ
   axis XYZ
   position 0 0 0  
   orientation 0 0 0 
:bonedata
  begin
     id 1 
     name lhipjoint
     direction 0.661853 -0.702389 0.261917 
     length 2.64193 
     axis 0 0 0  XYZ
  end
  begin
     id 2 
     name lfemur
     direction 0.34202 -0.939693 0  
     length 7.01722  
     axis 0 0 20  XYZ
    dof rx ry rz
    limits (-160.0 20.0)
           (-70.0 70.0)
           (-60.0 70.0)
  end
  begin
     id 3 
     name ltibia
     direction 0.34202 -0.939693 0   
     length 8.25008   
     axis 0 0 20   XYZ
    dof rx
    limits (-10.0 170.0)
  end
  begin
     id 4 
     name lfoot
     direction 0.0709916 -0.195048 0.978221   
     length 2.31941   
     axis -90 7.62852e-016 20   XYZ
    dof rx rz
    limits (-45.0 90.0)
           (-70.0 20.0)
  end
  begin
     id 5 
     name ltoes
     direction 1.53586e-011 -4.22017e-011 1   
     length 1.16486   
     axis -90 7.62852e-016 20   XYZ
    dof rx
    limits (-90.0 20.0)
  end
  begin
     id 6 
     name rhipjoint
     direction -0.638185 -0.721362 0.268992   
     length 2.57244  
     axis 0 0 0  XYZ 
  end
  begin
     id 7 
     name rfemur
     direction -0.34202 -0.939693 0   
     length 7.07017   
     axis 0 0 -20   XYZ
    dof rx ry rz
    limits (-160.0 20.0)
           (-70.0 70.0)
           (-70.0 60.0)
  end
  begin
     id 8 
     name rtibia
     direction -0.34202 -0.939693 0   
     length 8.20386   
     axis 0 0 -20   XYZ
    dof rx
    limits (-10.0 170.0)
 end
 begin
     id 9 
     name rfoot
     direction -0.0822429 -0.225961 0.970658   
     length 2.32215  
     axis -90 -7.62852e-016 -20   XYZ
    dof rx rz
    limits (-45.0 90.0)
           (-20.0 70.0)
  end
  begin
     id 10 
     name rtoes
     direction -1.53597e-011 -4.21689e-011 1   
     length 1.16333   
     axis -90 -7.62852e-016 -20   XYZ
    dof rx
    limits (-90.0 20.0)
  end
  begin
     id 11 
     name lowerback
     direction -0.0131557 0.998589 -0.0514484   
     length 2.14993   
     axis 0 0 0   XYZ
    dof rx ry rz
    limits (-20.0 45.0)
           (-30.0 30.0)
           (-30.0 30.0)
  end
  begin
     id 12 
     name upperback
     direction -0.000776481 0.999993 0.00352685   
     length 2.15301   
     axis 0 0 0   XYZ
    dof rx ry rz
    limits (-20.0 45.0)
           (-30.0 30.0)
           (-30.0 30.0)
  end
  begin
     id 13 
     name thorax
     direction 0.00438186 0.999609 0.0276143   
     length 2.15424   
     axis 0 0 0   XYZ
    dof rx ry rz
    limits (-20.0 45.0)
           (-30.0 30.0)
           (-30.0 30.0)
  end
  begin
     id 14 
     name lowerneck
     direction -0.0488006 0.998094 0.0377807   
     length 1.90481   
     axis 0 0 0   XYZ
    dof rx ry rz
    limits (-20.0 45.0)
           (-30.0 30.0)
           (-30.0 30.0)
  end
  begin
     id 15 
     name upperneck
     direction 0.0443769 0.990702 -0.12861   
     length 1.91305   
     axis 0 0 0   XYZ
    dof rx ry rz
    limits (-20.0 45.0)
           (-30.0 30.0)
           (-30.0 30.0)
  end
  begin
     id 16
     name head
     direction 0.0165599 0.998647 -0.0492982  
     length 1.92369  
     axis 0 0 0   XYZ
    dof rx ry rz
    limits (-20.0 45.0)
           (-30.0 30.0)
           (-30.0 30.0)
  end
  begin
     id 17 
     name lclavicle
     direction 0.911936 0.410197 -0.0105506  
     length 3.52622  
     axis 0 0 0   XYZ
    dof ry rz
    limits (-20.0 10.0)
           (0.0 20.0)
  end
  begin
     id 18 
     name lhumerus
     direction 1 -4.48974e-011 -2.48591e-028   
     length 5.47651   
     axis 180 -30 -90   XYZ
    dof rx ry rz
    limits (-60.0 90.0)
           (-90.0 90.0)
           (-90.0 90.0)
  end
  begin
     id 19
     name lradius
     direction 1 -4.48938e-011 -4.40099e-027   
     length 3.09058   
     axis 180 -30 -90   XYZ
    dof rx
    limits (-10.0 170.0)
  end
  begin
     id 20
     name lwrist
     direction 1 -4.49042e-011 -2.99852e-027   
     length 1.54529   
     axis 1.95339e-015 90 90   XYZ
    dof ry
    limits (-180.0 0.0)
 end
  begin
     id 21 
     name lhand
     direction 1 -4.48815e-011 -5.98193e-027   
     length 0.771611   
     axis 3.82337e-015 90 90   XYZ
    dof rx rz
    limits (-90.0 90.0)
           (-45.0 45.0)
  end
  begin
     id 22 
     name lfingers
     direction 1 -4.49034e-011 -1.1993e-026   
     length 0.622093   
     axis 7.64668e-015 90 90   XYZ
    dof rx
    limits (0.0 90.0)
  end
  begin
     id 23
     name lthumb
     direction 0.707107 -6.34867e-011 0.707107   
     length 0.893204   
     axis -90 45 -1.62303e-014   XYZ
    dof rx rz
    limits (-45.0 45.0)
           (-45.0 45.0)
  end
  begin
     id 24 
     name rclavicle
     direction -0.93442 0.355634 -0.0195692   
     length 3.62463  
     axis 0 0 0   XYZ 
    dof ry rz
    limits (-10.0 20.0)
           (-20.0 0.0)
  end
  begin
     id 25 
     name rhumerus
     direction -1 -4.48957e-011 -1.19147e-027  
     length 5.14182   
     axis 180 30 90   XYZ
    dof rx ry rz
    limits (-90.0 60.0)
           (-90.0 90.0)
           (-90.0 90.0)
  end
  begin
     id 26 
     name rradius
     direction -1 -4.48952e-011 -3.81062e-027   
     length 3.35565   
     axis 180 30 90   XYZ
    dof rx
    limits (-10.0 170.0)
  end
  begin
     id 27 
     name rwrist
     direction -1 -4.48973e-011 -2.99621e-027   
     length 1.67782   
     axis 1.95339e-015 -90 -90   XYZ
    dof ry
    limits (-180.0 0.0)
  end
  begin
     id 28
     name rhand
     direction -1 -4.48895e-011 -5.98727e-027   
     length 0.801042   
     axis 3.82337e-015 -90 -90   XYZ
    dof rx rz
    limits (-90.0 90.0)
           (-45.0 45.0)
  end
  begin
     id 29
     name rfingers
     direction -1 -4.49065e-011 -1.19972e-026   
     length 0.645821   
     axis 7.64668e-015 -90 -90   XYZ
    dof rx
    limits (0.0 90.0)
  end
  begin
     id 30
     name rthumb
     direction -0.707107 -6.34957e-011 0.707107   
     length 0.927273   
     axis -90 -45 1.62303e-014   XYZ
    dof rx rz
    limits (-45.0 45.0)
           (-45.0 45.0)
  end
:hierarchy
  begin
    root lhipjoint rhipjoint lowerback
    lhipjoint lfemur
    lfemur ltibia
    ltibia lfoot
    lfoot ltoes
    rhipjoint rfemur
    rfemur rtibia
    rtibia rfoot
    rfoot rtoes
    lowerback upperback
    upperback thorax
    thorax lowerneck lclavicle rclavicle
    lowerneck upperneck
    upperneck head
    lclavicle lhumerus
    lhumerus lradius
    lradius lwrist
    lwrist lhand lthumb
    lhand lfingers
    rclavicle rhumerus
    rhumerus rradius
    rradius rwrist
    rwrist rhand rthumb
    rhand rfingers
  end

#!OML:ASF F:\VICON\USERDATA\INSTALL\rory3\rory3.ASF
:FULLY-SPECIFIED
:DEGREES
83
root 17.1398 17.806 -13.5685 3.65749 -54.0787 1.58685
lowerback 2.51032 2.44049 -4.10455
upperback 0.335133 3.11251 -1.2967
thorax -1.2086 1.56527 0.851885
lowerneck -8.23222 -2.52367 -5.22617
upperneck 21.1987 -3.20894 1.82833
head 8.01952 -1.83704 1.17282
rclavicle -1.86112e-013 2.3059e-014
rhumerus -32.0986 -1.30306 -85.1196
rradius 27.69
rwrist -2.00054
rhand -10.8617 16.1972
rfingers 7.12502
rthumb 15.1537 -13.228
lclavicle -1.86112e-013 2.3059e-014
lhumerus -34.2531 -5.6225 85.403
lradius 34.026
lwrist 11.8012
lhand -3.54817 27.2805
lfingers 7.12502
lthumb 22.1878 56.0271
rfemur -15.9051 1.17397 20.5038
rtibia 32.9513
rfoot -20.6711 -15.3759
rtoes -9.45846
lfemur -12.2901 -1.7787 -26.9647
ltibia 26.2203
lfoot -20.3211 13.0474
ltoes -13.9894
84
root 17.1363 17.8037 -13.5619 3.84738 -54.2988 1.29989
lowerback 2.58399 2.5249 -4.07891
upperback 0.422069 3.22398 -1.29629
thorax -1.16421 1.61882 0.832486
lowerneck -8.16298 -2.5424 -5.2954
upperneck 21.0888 -3.25341 1.96612
head 7.97521 -1.84949 1.22688
rclavicle 8.59744e-015 7.55382e-015
rhumerus -32.1061 -1.29203 -85.125
rradius 27.8566
rwrist -2.01351
rhand -10.9662 16.1487
rfingers 7.12502
rthumb 15.0531 -13.284
lclavicle 8.59744e-015 7.55382e-015
lhumerus -34.3167 -5.34858 85.1871
lradius 34.1338
lwrist 11.601
lhand -3.29271 27.5463
lfingers 7.12502
lthumb 22.433 56.2636
rfemur -16.2109 1.33831 20.6702
rtibia 33.5304
rfoot -20.6932 -15.2587
rtoes -9.39911
lfemur -12.3027 -1.6927 -26.7889
ltibia 26.3476
lfoot -20.4587 13.105
ltoes -13.8526
85
root 17.134 17.7997 -13.5518 3.90456 -54.5099 1.23889
lowerback 2.6129 2.60463 -4.14698
upperback 0.493064 3.32722 -1.35493
thorax -1.11248 1.66832 0.806607
lowerneck -8.09133 -2.56688 -5.21475
upperneck 20.9434 -3.30067 1.969
head 7.91395 -1.86373 1.21103
rclavicle 7.66315e-014 -1.11319e-014
rhumerus -32.14 -1.18495 -85.1996
rradius 28.0487
rwrist -2.09253
rhand -11.0279 16.054
rfingers 7.12502
rthumb 14.9937 -13.3832
lclavicle 7.66315e-014 -1.11319e-014
lhumerus -34.3415 -5.23313 84.9911
lradius 34.1133
lwrist 11.5834
lhand -3.37452 27.6041
lfingers 7.12502
lthumb 22.3545 56.3308
rfemur -16.6085 1.45143 20.6602
rtibia 34.1967
rfoot -20.6426 -15.0895
rtoes -9.35131
lfemur -12.337 -1.63081 -26.7929
ltibia 26.4462
lfoot -20.4595 13.3573
ltoes -14.7398
86
root 17.1382 17.7994 -13.5518 3.93513 -54.4781 1.31039
lowerback 2.7529 2.5736 -4.35222
upperback 0.488202 3.27016 -1.39622
thorax -1.20233 1.64148 0.873541
lowerneck -8.10501 -2.54311 -5.11854
upperneck 20.9215 -3.26736 1.90067
head 7.90485 -1.84633 1.17541
rclavicle 2.19657e-014 2.70347e-014
rhumerus -32.2625 -0.602133 -85.4139
rradius 28.3634
rwrist -2.63629
rhand -11.1239 15.8701
rfingers 7.12502
rthumb 14.9011 -13.5739
lclavicle 2.19657e-014 2.70347e-014
lhumerus -34.4991 -4.98938 84.758
lradius 34.2763
lwrist 11.5851
lhand -3.29336 27.6757
lfingers 7.12502
lthumb 22.4324 56.3931
rfemur -17.1505 1.37302 20.5975
rtibia 34.9585
rfoot -20.4302 -15.0066
rtoes -9.42087
lfemur -12.4795 -1.67931 -26.8342
ltibia 26.5246
lfoot -20.4504 13.3868
ltoes -15.0888
87
root 17.1419 17.7972 -13.5476 3.97895 -54.4873 1.36898
lowerback 2.83929 2.56258 -4.46794
upperback 0.49898 3.24533 -1.45923
thorax -1.2412 1.62942 0.870423
lowerneck -8.05601 -2.52322 -5.12551
upperneck 20.8297 -3.25415 1.97441
head 7.86602 -1.83291 1.20299
rclavicle 3.3048e-014 3.97569e-016
rhumerus -32.2944 -0.321436 -85.5279
rradius 28.5057
rwrist -2.93558
rhand -11.1583 15.8523
rfingers 7.12502
rthumb 14.868 -13.5942
lclavicle 3.3048e-014 3.97569e-016
lhumerus -34.6484 -4.74312 84.5382
lradius 34.4563
lwrist 11.5648
lhand -3.32712 27.8594
lfingers 7.12502
lthumb 22.4 56.5807
rfemur -17.7706 1.1448 20.5385
rtibia 35.8312
rfoot -19.9853 -14.9753
rtoes -10.9421
lfemur -12.5927 -1.78317 -26.8853
ltibia 26.5617
lfoot -20.7299 13.3276
ltoes -14.1174
88
root 17.1429 17.7946 -13.5374 4.06445 -54.585 1.32127
lowerback 2.88878 2.59653 -4.46925
upperback 0.547906 3.2874 -1.5283
thorax -1.21667 1.64876 0.797591
lowerneck -8.00651 -2.55038 -5.1033
upperneck 20.704 -3.30603 2.03235
head 7.81764 -1.84904 1.21439
rclavicle 9.6013e-014 -1.74931e-014
rhumerus -32.15 -0.784776 -85.4162
rradius 28.3551
rwrist -2.58239
rhand -10.9586 16.0563
rfingers 7.12502
rthumb 15.0603 -13.3759
lclavicle 9.6013e-014 -1.74931e-014
lhumerus -34.7477 -4.53734 84.3318
lradius 34.4783
lwrist 11.4513
lhand -3.56387 27.8553
lfingers 7.12502
lthumb 22.1727 56.6037
rfemur -18.3799 0.903078 20.5339
rtibia 36.7916
rfoot -19.5016 -14.827
rtoes -12.651
lfemur -12.631 -1.85051 -26.8896
ltibia 26.5691
lfoot -20.9976 13.3119
ltoes -12.9862
89
root 17.1426 17.795 -13.5298 4.20214 -54.6819 1.18089
lowerback 2.9934 2.57459 -4.56737
upperback 0.563127 3.24964 -1.48268
thorax -1.26585 1.63091 0.895775
lowerneck -7.89618 -2.53845 -5.13851
upperneck 20.5972 -3.2748 1.96898
head 7.76098 -1.8425 1.20376
rclavicle -4.94974e-014 5.1684e-015
rhumerus -31.9867 -1.3131 -85.1842
rradius 28.0578
rwrist -1.92622
rhand -10.8786 16.3971
rfingers 7.12502
rthumb 15.1374 -13.0293
lclavicle -4.94974e-014 5.1684e-015
lhumerus -34.9254 -4.07497 84.1398
lradius 34.3709
lwrist 11.3196
lhand -3.75962 27.6316
lfingers 7.12502
lthumb 21.9848 56.4022
rfemur -18.994 0.732767 20.591
rtibia 37.8155
rfoot -19.2146 -14.413
rtoes -12.8445
lfemur -12.6443 -1.85804 -26.815
ltibia 26.5751
lfoot -21.0524 13.2405
ltoes -12.2301
90
root 17.1418 17.7949 -13.5217 4.21131 -54.7892 1.23287
lowerback 3.05527 2.56007 -4.77593
upperback 0.560268 3.21895 -1.47576
thorax -1.31374 1.617 1.01679
lowerneck -7.7413 -2.51721 -5.19927
upperneck 20.519 -3.24683 1.98229
head 7.70745 -1.83343 1.22283
rclavicle 2.75317e-014 3.18055e-015
rhumerus -31.9817 -1.47928 -85.0696
rradius 28.008
rwrist -1.67649
rhand -10.7608 16.5388
rfingers 7.12502
rthumb 15.2509 -12.879
lclavicle 2.75317e-014 3.18055e-015
lhumerus -35.0407 -3.83799 84.0236
lradius 34.1709
lwrist 11.4546
lhand -3.95497 27.7989
lfingers 7.12502
lthumb 21.7972 56.5914
rfemur -19.7039 0.525019 20.5195
rtibia 38.9092
rfoot -18.9882 -14.0212
rtoes -12.8601
lfemur -12.6713 -1.87281 -26.8795
ltibia 26.5742
lfoot -21.2286 13.2682
ltoes -11.6521
91
root 17.1406 17.7943 -13.5127 4.30587 -54.8376 1.1835
lowerback 3.08686 2.58573 -4.82086
upperback 0.606076 3.24984 -1.5207
thorax -1.28582 1.63091 0.993981
lowerneck -7.70583 -2.55148 -5.20818
upperneck 20.4165 -3.31483 2.09676
head 7.67156 -1.85479 1.25637
rclavicle 1.87156e-013 -2.62396e-014
rhumerus -32.0009 -1.41459 -85.1004
rradius 28.1286
rwrist -1.95808
rhand -10.6626 16.5312
rfingers 7.12502
rthumb 15.3455 -12.8793
lclavicle 1.87156e-013 -2.62396e-014
lhumerus -35.0165 -3.84031 83.9112
lradius 33.9525
lwrist 11.6354
lhand -4.03228 28.0223
lfingers 7.12502
lthumb 21.723 56.8235
rfemur -20.4549 0.212603 20.5118
rtibia 40.0663
rfoot -18.7174 -13.6979
rtoes -13.16
lfemur -12.6879 -1.89506 -26.8813
ltibia 26.5497
lfoot -21.3784 13.3328
ltoes -11.3643
92
root 17.1423 17.7929 -13.5008 4.40727 -54.945 1.1245
lowerback 3.18306 2.63095 -4.79411
upperback 0.612026 3.30334 -1.57834
thorax -1.33153 1.65778 0.912928
lowerneck -7.61496 -2.57844 -5.17264
upperneck 20.2927 -3.36518 2.12667
head 7.61602 -1.87252 1.25702
rclavicle 1.39149e-015 -1.35174e-014
rhumerus -32.1241 -1.1834 -85.1828
rradius 28.3444
rwrist -2.40021
rhand -10.7142 16.4442
rfingers 7.12502
rthumb 15.2958 -12.9702
lclavicle 1.39149e-015 -1.35174e-014
lhumerus -35.1783 -3.88855 83.8019
lradius 33.9198
lwrist 11.8236
lhand -4.03832 27.9096
lfingers 7.12502
lthumb 21.7172 56.7114
rfemur -21.2614 -0.137425 20.4982
rtibia 41.2781
rfoot -18.2169 -13.4831
rtoes -14.6257
lfemur -12.6989 -1.86684 -26.8866
ltibia 26.4934
lfoot -21.4374 13.3127
ltoes -11.0075
